<?xml version="1.0" standalone="no"?>
<!DOCTYPE svg PUBLIC "-//W3C//DTD SVG 20010904//EN"
 "http://www.w3.org/TR/2001/REC-SVG-20010904/DTD/svg10.dtd">
<svg version="1.0" xmlns="http://www.w3.org/2000/svg"
 width="1184.000000pt" height="852.000000pt" viewBox="0 0 1184.000000 852.000000"
 preserveAspectRatio="xMidYMid meet">

<g transform="translate(0.000000,852.000000) scale(0.100000,-0.100000)"
fill="rgb(156, 39, 176)" stroke="none">
<path d="M5962 7611 c-34 -33 -64 -72 -68 -87 -10 -41 3 -117 29 -166 23 -44
25 -57 32 -304 5 -198 11 -267 23 -298 12 -30 17 -83 18 -201 2 -88 7 -225 12
-304 9 -135 11 -146 33 -164 40 -32 100 -19 146 33 21 23 50 54 64 69 14 14
31 42 37 61 7 19 21 44 32 55 11 11 26 39 33 60 14 41 45 65 84 65 30 0 42
-47 52 -205 6 -96 13 -131 28 -157 11 -18 26 -50 33 -70 13 -42 21 -46 41 -22
7 8 26 22 43 31 80 41 238 197 336 333 22 30 40 60 40 66 0 6 11 27 25 47 13
20 29 55 35 77 6 23 22 62 35 87 14 25 25 54 25 64 0 9 11 30 24 46 13 16 29
49 36 73 6 25 20 59 31 76 11 18 22 64 27 111 7 57 17 93 36 125 25 44 36 118
17 118 -12 0 -78 -68 -116 -120 -16 -22 -45 -59 -62 -81 -18 -23 -33 -45 -33
-50 0 -5 -15 -32 -34 -60 -19 -27 -38 -58 -41 -69 -4 -11 -10 -20 -16 -20 -5
0 -15 -16 -24 -36 -8 -20 -25 -48 -37 -64 -13 -15 -31 -40 -40 -56 -10 -16
-30 -48 -45 -70 -16 -23 -40 -60 -55 -82 -35 -52 -43 -56 -77 -42 -38 15 -47
39 -66 167 -9 59 -20 123 -26 140 -8 25 -6 51 6 107 9 41 17 121 18 178 l2
103 -88 3 c-85 3 -91 1 -163 -35 -41 -21 -77 -46 -80 -56 -3 -10 -7 -73 -8
-140 -1 -93 -6 -130 -19 -154 -19 -36 -25 -39 -50 -20 -45 32 -76 320 -77 694
0 131 0 133 -28 164 -21 23 -39 32 -73 36 -44 5 -46 4 -107 -56z"/>
<path d="M5211 7574 c-17 -25 -31 -48 -31 -52 0 -4 -14 -27 -30 -52 -34 -52
-38 -98 -14 -159 13 -34 15 -73 11 -238 -5 -226 -16 -289 -54 -306 -29 -13
-23 -17 -88 80 -19 29 -35 57 -35 62 0 5 -11 22 -24 38 -45 54 -76 139 -76
211 0 88 -17 141 -47 148 -13 4 -56 5 -96 3 -68 -4 -75 -7 -108 -39 -19 -19
-50 -61 -68 -93 l-33 -58 2 -137 c1 -75 2 -230 2 -344 -1 -152 3 -221 13 -260
8 -29 17 -114 21 -188 7 -166 19 -227 46 -235 10 -4 24 -18 30 -31 8 -18 19
-24 42 -24 24 1 40 11 71 47 l39 46 3 165 c3 237 18 290 84 307 22 6 32 -1 69
-45 54 -65 84 -106 109 -150 11 -19 45 -61 76 -94 l56 -58 66 4 c62 4 68 6 99
43 18 22 35 55 39 75 3 19 17 56 31 82 13 26 29 80 34 120 6 40 17 116 27 169
15 89 15 103 0 185 -9 49 -21 122 -27 162 -5 40 -19 90 -29 110 -13 25 -23 78
-30 160 -8 84 -17 135 -31 161 -10 21 -24 60 -31 87 -7 27 -22 61 -35 76 -12
16 -25 37 -29 48 -9 30 -20 25 -54 -26z"/>
<path d="M3717 7164 c-15 -8 -56 -24 -91 -34 -35 -11 -69 -26 -75 -34 -7 -8
-36 -20 -64 -26 -28 -6 -61 -19 -72 -30 -11 -10 -39 -23 -63 -28 -24 -6 -60
-21 -80 -35 -20 -14 -53 -28 -72 -32 -60 -12 -118 -55 -126 -93 -12 -63 4
-142 36 -179 17 -18 30 -37 30 -41 0 -4 16 -15 36 -24 34 -16 38 -16 63 0 14
9 49 41 78 70 41 40 59 52 83 52 60 0 78 -23 95 -125 4 -22 14 -51 22 -65 9
-13 22 -55 29 -93 8 -38 23 -85 34 -105 12 -19 26 -60 32 -91 5 -31 18 -70 29
-87 10 -17 24 -55 30 -84 6 -30 21 -67 33 -83 16 -22 21 -43 21 -95 l0 -66
-65 -44 -65 -44 -77 4 c-75 5 -77 4 -87 -21 -33 -83 -32 -151 3 -219 17 -32
18 -33 64 -26 26 4 57 11 70 15 13 5 79 16 148 24 69 9 149 25 177 36 38 15
67 20 106 17 55 -5 131 20 131 43 0 5 17 17 37 25 20 9 51 26 67 39 17 12 40
26 52 29 28 9 49 72 35 108 -13 34 -15 35 -103 46 -42 6 -89 17 -104 25 -16 9
-46 23 -66 32 -21 10 -38 21 -38 25 0 5 -11 22 -25 38 -13 16 -29 50 -35 75
-5 25 -19 63 -29 84 -11 21 -25 65 -31 98 -7 33 -21 72 -31 86 -10 15 -24 50
-30 79 -6 29 -19 67 -29 84 -10 17 -24 57 -30 89 -7 33 -23 82 -36 110 -13 30
-21 61 -18 72 7 24 64 85 79 85 18 0 91 73 108 109 36 74 10 144 -67 183 -70
36 -87 39 -119 22z"/>
<path d="M8360 6941 c-61 -13 -165 -90 -300 -222 -118 -115 -133 -126 -194
-133 -45 -6 -63 -15 -102 -49 -28 -25 -56 -62 -70 -93 -12 -28 -37 -63 -56
-77 -116 -93 -229 -206 -256 -258 -26 -50 -58 -103 -87 -144 -26 -37 -23 -97
7 -134 13 -16 28 -36 33 -46 26 -44 154 17 239 115 27 30 77 84 112 119 l64
63 57 -7 c98 -11 141 -26 180 -60 l38 -34 -24 -43 c-13 -24 -33 -54 -43 -68
-11 -14 -35 -50 -54 -80 -33 -52 -34 -58 -34 -152 0 -110 9 -125 56 -92 14 11
42 28 61 40 19 12 41 31 49 43 8 11 20 21 26 21 11 0 197 186 236 236 13 16
33 43 46 59 13 17 34 50 46 75 13 25 28 49 35 55 6 5 17 30 24 54 7 24 21 56
31 70 10 14 24 53 30 86 7 33 21 79 31 103 14 30 23 83 30 185 9 124 13 147
36 186 23 39 24 47 14 82 -7 22 -15 39 -20 39 -4 0 -15 16 -24 35 l-17 35 -82
-1 c-46 -1 -99 -5 -118 -8z m-157 -510 c7 -33 -32 -155 -58 -180 -13 -13 -18
-13 -44 7 -17 12 -35 22 -40 22 -18 0 -43 48 -34 63 16 27 90 86 116 92 15 4
30 11 33 16 10 17 22 9 27 -20z"/>
<path d="M9174 6427 c-17 -17 -35 -43 -39 -57 -11 -37 -49 -85 -152 -190 -103
-105 -190 -198 -273 -290 -30 -33 -69 -75 -85 -93 -17 -18 -37 -47 -44 -64 -7
-18 -17 -33 -22 -33 -5 0 -15 -12 -23 -27 -8 -16 -37 -51 -64 -79 -51 -52 -93
-124 -118 -205 -7 -25 -23 -54 -34 -64 -31 -28 -26 -83 11 -136 40 -56 54 -67
104 -80 22 -6 60 -20 85 -32 39 -18 64 -21 180 -20 127 0 138 1 184 26 27 15
56 27 65 27 9 0 35 13 59 29 23 16 62 32 85 36 23 4 60 18 82 30 22 12 52 25
67 29 15 3 44 17 64 31 20 14 45 25 54 25 10 0 29 9 43 20 14 12 45 30 69 41
45 21 101 57 130 83 10 8 35 27 58 41 22 14 40 30 40 35 0 5 14 16 30 25 23
12 30 22 30 45 0 34 -11 37 -61 16 -19 -8 -68 -19 -108 -25 -41 -7 -89 -21
-107 -31 -23 -15 -61 -22 -141 -29 -76 -6 -121 -15 -149 -29 -22 -11 -79 -25
-132 -31 -54 -7 -109 -20 -130 -31 -49 -27 -147 -28 -161 -2 -19 36 11 104 72
161 15 14 27 30 27 36 0 32 209 276 373 434 222 215 227 221 227 254 0 79
-103 157 -207 157 -52 0 -61 -3 -89 -33z"/>
<path d="M2251 6260 c-35 -9 -67 -23 -71 -31 -4 -8 -10 -37 -14 -66 -4 -29
-13 -70 -21 -92 -12 -35 -12 -46 0 -83 8 -24 19 -70 24 -104 6 -36 20 -76 35
-99 14 -21 26 -44 26 -53 0 -8 15 -40 33 -71 31 -54 32 -61 33 -171 2 -112 3
-117 33 -162 17 -25 37 -48 45 -51 21 -8 85 -141 97 -201 6 -28 19 -62 28 -76
10 -14 21 -35 25 -47 6 -20 29 -52 95 -133 41 -50 72 -103 67 -115 -12 -33
-242 -155 -291 -155 -16 0 -47 -11 -71 -25 -23 -14 -69 -31 -101 -39 -33 -7
-70 -19 -83 -26 -36 -20 -203 -26 -217 -9 -6 9 -12 88 -15 209 -4 170 -7 201
-25 240 -12 25 -26 63 -32 86 -22 82 -125 192 -209 224 -30 11 -67 27 -84 36
-29 15 -33 14 -80 -10 -27 -14 -56 -26 -62 -26 -7 0 -31 -12 -52 -28 -21 -15
-49 -32 -61 -37 -34 -15 -147 -119 -212 -195 -54 -63 -60 -74 -71 -142 -11
-63 -10 -83 4 -143 9 -38 25 -79 36 -90 109 -116 135 -138 205 -176 22 -12 49
-29 60 -39 11 -10 38 -23 60 -30 22 -7 49 -20 60 -30 11 -10 35 -21 53 -25 28
-6 82 -44 113 -80 39 -46 69 -85 84 -112 20 -34 47 -47 122 -57 41 -6 168 -68
188 -92 6 -6 26 -17 46 -23 20 -7 44 -20 54 -31 9 -10 30 -22 46 -25 15 -4 45
-20 65 -36 24 -19 48 -29 70 -29 29 0 36 5 54 39 18 37 19 42 4 78 -9 21 -45
68 -80 105 -91 97 -95 140 -15 153 20 4 52 13 71 20 19 8 52 18 72 24 21 5 50
19 64 30 15 12 45 26 68 32 22 6 50 19 61 29 11 11 36 26 55 35 19 9 60 32 90
50 30 19 75 44 100 55 25 12 52 25 60 31 8 5 38 20 65 33 28 13 57 31 64 40 7
9 32 21 54 27 22 6 54 21 71 34 17 12 41 26 54 30 12 3 22 11 22 16 0 6 12 22
26 36 32 32 26 64 -18 110 -43 45 -73 49 -139 18 -57 -26 -117 -32 -151 -14
-19 10 -68 105 -68 133 0 7 -13 30 -30 51 -16 21 -30 45 -30 54 0 10 -11 32
-25 51 -51 69 -50 149 1 197 13 12 24 27 24 32 0 15 86 101 101 101 12 0 89
-80 89 -92 0 -4 27 -39 60 -77 45 -52 70 -73 98 -81 20 -5 51 -19 67 -30 33
-22 60 -26 70 -10 12 20 -15 158 -40 206 -14 26 -25 55 -25 64 0 9 -13 42 -30
73 -16 31 -30 62 -30 68 0 7 -11 27 -26 46 -14 18 -32 49 -40 68 -8 19 -19 35
-24 35 -5 0 -17 14 -26 32 -22 42 -230 250 -272 272 -18 9 -32 21 -32 27 0 5
-15 16 -32 24 -18 7 -48 25 -67 39 -19 14 -40 26 -47 26 -6 0 -27 11 -47 25
-20 13 -54 29 -75 34 -40 11 -71 36 -98 75 -20 31 -55 35 -133 16z m317 -522
c7 -7 31 -19 54 -28 26 -9 51 -28 65 -49 35 -52 34 -55 -46 -118 l-34 -27 -18
23 c-10 12 -21 38 -25 56 -3 19 -12 39 -20 46 -8 6 -14 30 -14 54 0 54 13 68
38 43z m-1075 -940 c25 -29 24 -147 -1 -178 -18 -22 -19 -22 -52 -5 -19 10
-54 34 -77 54 -39 31 -43 40 -43 79 0 41 2 44 43 63 50 23 103 18 130 -13z"/>
<path d="M10258 5251 l-77 -6 -68 -68 c-95 -94 -179 -136 -295 -146 -60 -5
-95 -14 -114 -27 -14 -10 -36 -26 -48 -34 -12 -8 -41 -36 -64 -61 -27 -30 -56
-50 -84 -58 -24 -7 -61 -24 -83 -36 -22 -13 -54 -26 -72 -30 -18 -3 -42 -14
-55 -24 -13 -9 -44 -25 -70 -35 -27 -10 -48 -21 -48 -26 0 -4 -22 -17 -49 -28
-82 -36 -90 -98 -28 -197 18 -27 38 -59 45 -70 24 -38 42 -84 42 -106 0 -18
52 -142 78 -185 51 -85 62 -94 105 -94 72 0 91 17 99 85 5 34 17 72 28 87 25
34 25 54 0 101 -11 21 -25 61 -31 90 -7 28 -18 61 -25 72 -8 11 -14 30 -14 43
0 28 42 72 68 72 10 0 41 12 67 26 27 14 70 28 97 31 47 6 49 5 90 -39 24 -25
56 -63 71 -84 15 -21 41 -57 58 -78 16 -22 32 -49 35 -60 6 -24 49 -57 114
-86 25 -12 53 -25 62 -30 32 -18 76 -12 89 12 25 47 10 213 -20 223 -25 7 -76
90 -91 145 -6 25 -21 60 -32 77 -38 64 -11 103 112 159 19 9 43 23 52 31 9 8
33 18 53 23 34 8 40 5 78 -28 22 -21 47 -49 56 -63 9 -14 61 -74 115 -132 109
-116 125 -124 185 -89 44 24 66 75 65 147 0 62 -31 140 -59 151 -7 3 -18 18
-25 34 -7 16 -18 31 -25 34 -8 3 -24 24 -36 48 -12 24 -27 50 -34 58 -7 8 -17
30 -23 48 -6 18 -26 56 -43 83 l-32 49 -71 -2 c-39 -1 -106 -4 -148 -7z"/>
<path d="M887 3960 c-55 -17 -173 -83 -210 -119 -62 -58 -187 -240 -187 -271
0 -8 -11 -36 -25 -62 -17 -32 -25 -63 -25 -96 0 -54 50 -215 77 -244 9 -10 42
-26 72 -35 31 -8 72 -24 93 -34 20 -10 58 -23 85 -29 26 -6 59 -19 73 -28 14
-10 43 -23 66 -30 22 -6 49 -21 59 -32 10 -11 23 -20 30 -20 7 0 30 -13 52
-29 73 -53 124 -74 188 -76 33 -1 73 -7 88 -13 16 -7 31 -12 35 -12 4 0 27
-14 51 -30 24 -17 52 -30 61 -30 9 0 39 -11 66 -25 27 -14 69 -30 94 -36 24
-5 52 -17 61 -25 9 -8 44 -25 78 -39 l63 -24 39 39 c21 21 39 43 39 48 0 6 11
23 24 39 31 36 59 142 92 343 23 140 24 163 14 236 -7 51 -20 94 -33 114 -12
19 -27 41 -32 51 -6 9 -33 39 -61 65 -28 27 -55 56 -60 65 -5 9 -40 43 -79 76
-56 48 -86 65 -151 86 -45 15 -96 27 -115 26 -40 0 -183 -47 -219 -71 -47 -32
-69 -27 -106 22 -19 25 -42 60 -51 79 -53 102 -150 150 -246 121z m136 -362
c41 -21 99 -73 113 -100 17 -33 19 -181 3 -227 -15 -41 -49 -50 -109 -26 -25
9 -77 28 -116 42 -39 13 -87 38 -108 55 -36 29 -38 34 -32 72 4 23 15 52 25
66 10 14 21 35 25 47 4 12 23 36 42 52 29 26 43 31 85 31 28 0 60 -5 72 -12z
m563 -126 c68 -38 94 -58 100 -75 3 -9 14 -22 25 -28 31 -16 91 -147 84 -183
-9 -50 -63 -153 -91 -175 -35 -27 -106 -28 -154 -2 -19 11 -51 27 -70 36 -19
9 -50 32 -67 52 -29 32 -33 43 -33 94 0 31 7 75 15 98 8 23 17 72 21 109 4 43
12 72 22 80 23 18 112 15 148 -6z"/>
<path d="M10707 3852 c-88 -45 -168 -128 -197 -202 -7 -19 -22 -49 -32 -67
-25 -41 -38 -162 -38 -346 l0 -147 -41 -45 c-50 -54 -93 -60 -141 -20 -16 14
-35 25 -43 25 -23 0 -169 134 -240 222 -16 21 -56 65 -87 99 -32 33 -58 65
-58 70 0 4 -11 18 -23 31 -40 38 -154 174 -166 197 -7 11 -26 28 -43 37 -25
13 -32 14 -40 2 -12 -18 0 -94 22 -146 11 -23 24 -69 31 -102 6 -33 17 -65 25
-71 7 -6 20 -34 30 -62 9 -29 24 -61 34 -72 9 -11 23 -35 30 -53 36 -92 275
-344 348 -366 12 -4 36 -19 52 -33 37 -31 117 -53 190 -53 92 1 220 35 220 59
0 4 11 13 24 20 32 18 102 127 110 173 4 20 16 59 28 85 19 42 22 72 26 247
l5 199 31 33 c43 45 67 50 102 22 16 -13 42 -30 57 -38 42 -21 105 -101 131
-167 52 -129 54 -131 102 -152 57 -25 83 -26 129 -4 43 21 49 39 43 146 -4 68
-9 89 -31 121 -15 21 -27 43 -27 49 0 17 -87 140 -128 182 -70 69 -105 92
-187 120 -122 41 -177 43 -248 7z"/>
<path d="M4940 2379 c-69 -4 -151 -14 -183 -22 -31 -9 -121 -21 -198 -27 -92
-7 -158 -18 -190 -30 -26 -11 -104 -26 -172 -34 -69 -8 -139 -22 -156 -30 -17
-9 -79 -21 -138 -27 -60 -5 -135 -19 -168 -30 -33 -11 -107 -24 -165 -30 -58
-6 -126 -19 -151 -29 -25 -11 -88 -24 -140 -31 -52 -6 -114 -20 -139 -31 -25
-10 -83 -24 -129 -30 -46 -5 -101 -19 -121 -29 -20 -11 -75 -26 -121 -33 -46
-8 -99 -22 -117 -31 -18 -9 -65 -21 -104 -27 -40 -5 -89 -18 -110 -29 -21 -11
-73 -26 -116 -33 -42 -7 -93 -23 -112 -34 -19 -11 -54 -23 -78 -27 -24 -4 -55
-18 -70 -32 -15 -13 -33 -28 -42 -33 -28 -16 1 -24 83 -24 64 1 91 6 125 23
23 12 79 26 125 32 45 6 101 20 124 30 23 10 89 26 147 34 58 8 116 21 129 29
12 9 68 22 122 30 55 8 114 21 132 30 17 9 74 21 125 27 51 6 114 19 140 30
27 11 99 26 160 34 62 7 130 21 151 30 21 8 88 20 150 26 62 6 141 19 177 30
36 10 133 26 215 34 83 8 169 21 191 29 23 8 102 20 175 26 151 12 176 16 237
36 87 28 128 14 139 -49 7 -47 -10 -62 -81 -72 -27 -3 -73 -17 -100 -30 -28
-13 -75 -26 -105 -30 -30 -4 -73 -17 -97 -30 -23 -12 -68 -26 -100 -30 -45 -5
-64 -13 -87 -37 -45 -45 -24 -56 56 -30 35 12 112 27 173 33 60 5 134 19 164
30 35 13 110 25 210 34 85 7 168 18 183 24 30 12 164 25 393 40 78 5 151 14
161 20 34 18 182 31 354 31 153 0 167 -2 184 -20 17 -19 17 -21 0 -40 -10 -11
-24 -20 -30 -20 -7 0 -29 -11 -49 -25 -21 -14 -61 -31 -89 -37 -29 -6 -72 -21
-97 -33 -25 -13 -64 -26 -88 -30 -26 -4 -41 -12 -39 -18 3 -9 49 -11 158 -10
143 1 201 7 319 33 25 5 133 14 240 20 112 6 235 19 290 31 54 11 194 26 325
34 127 8 257 22 290 30 33 8 159 19 280 25 139 7 256 19 317 31 64 13 188 25
360 34 145 8 300 21 345 29 45 8 198 20 339 26 279 11 328 16 359 36 21 14
167 34 248 34 26 0 47 5 47 10 0 15 -222 12 -381 -5 -75 -8 -232 -19 -350 -24
-118 -6 -308 -16 -424 -21 -115 -6 -244 -17 -285 -25 -41 -8 -183 -19 -315
-25 -226 -10 -280 -16 -399 -40 -27 -5 -130 -14 -230 -20 -203 -11 -247 -16
-326 -36 -30 -8 -125 -19 -210 -25 -101 -7 -175 -17 -213 -30 -84 -28 -137
-24 -137 11 0 11 15 23 40 33 34 13 40 20 40 45 0 58 10 57 -511 57 -438 0
-480 1 -495 17 -14 14 -15 22 -6 42 6 13 20 27 32 31 17 5 21 13 18 42 -3 32
-7 36 -73 64 -103 45 -251 55 -535 38z"/>
</g>
</svg>
